<svg xmlns="http://www.w3.org/2000/svg" viewBox="0 0 100 100" width="100%" height="100%">
  <path d="M50 30 C45 20 35 15 25 15 C10 15 0 25 0 40 C0 65 30 75 50 85 C70 75 100 65 100 40 C100 25 90 15 75 15 C65 15 55 20 50 30 Z" fill="none" />
  <path d="M30 45 C30 35 40 28 52 28 C64 28 68 35 73 35 C78 35 83 30 83 25 C83 25 81 29 77 31 C73 33 69 31 62 31 C50 31 44 38 41 40 C38 42 34 45 28 45 C20 45 15 40 15 35 C15 35 17 38 21 38 C25 38 27 35 30 45 Z" fill="#38BDF8" />
  <path d="M48 68 C48 58 58 51 70 51 C82 51 86 58 91 58 C96 58 101 53 101 48 C101 48 99 52 95 54 C91 56 87 54 80 54 C68 54 62 61 59 63 C56 65 52 68 46 68 C38 68 33 63 33 58 C33 58 35 61 39 61 C43 61 45 58 48 68 Z" fill="#38BDF8" transform="translate(-15, -5)" />
</svg>
